<?xml version="1.0" standalone="no"?>
<!DOCTYPE svg PUBLIC "-//W3C//DTD SVG 20010904//EN"
 "http://www.w3.org/TR/2001/REC-SVG-20010904/DTD/svg10.dtd">
<svg version="1.0" xmlns="http://www.w3.org/2000/svg"
 width="128.000000pt" height="128.000000pt" viewBox="0 0 128.000000 128.000000"
 preserveAspectRatio="xMidYMid meet">

<g transform="translate(0.000000,128.000000) scale(0.100000,-0.100000)"
fill="#000000" stroke="none">
<path d="M250 1141 c0 -6 -9 -11 -19 -11 -10 0 -21 -7 -25 -15 -3 -9 0 -15 10
-15 8 0 17 -6 20 -13 2 -7 18 -14 34 -15 16 -1 42 -7 56 -13 19 -7 29 -7 34 1
7 11 87 3 94 -9 2 -3 27 -134 55 -291 29 -157 55 -293 59 -302 5 -12 12 -15
20 -9 11 7 2 69 -44 324 l-58 316 -54 7 c-29 3 -56 12 -59 20 -2 7 -12 12 -21
12 -21 -1 -82 11 -94 18 -4 3 -8 0 -8 -5z"/>
<path d="M670 848 c-58 -11 -106 -21 -107 -22 -3 -3 39 -240 44 -245 5 -7 213
32 219 41 7 11 -36 248 -45 247 -3 -1 -53 -10 -111 -21z m106 -45 c3 -21 12
-66 19 -101 10 -47 10 -64 1 -67 -6 -2 -46 -10 -89 -18 -56 -10 -80 -11 -83
-3 -7 22 -35 188 -32 191 4 4 138 33 160 34 12 1 19 -10 24 -36z"/>
<path d="M719 754 c-9 -11 -9 -18 -2 -22 6 -4 14 -24 18 -45 10 -53 29 -47 22
7 -5 31 -3 46 6 49 7 2 3 8 -9 15 -18 9 -24 8 -35 -4z"/>
<path d="M636 741 c-3 -4 0 -23 6 -42 6 -19 12 -40 14 -46 2 -7 7 -13 12 -13
13 0 10 93 -3 102 -13 10 -23 10 -29 -1z"/>
<path d="M785 596 c-142 -27 -170 -35 -169 -49 3 -62 6 -75 19 -93 14 -17 15
-15 13 36 l-3 55 168 31 c92 17 170 28 172 24 8 -13 38 -191 33 -196 -3 -3
-60 -14 -127 -26 -86 -15 -121 -26 -121 -35 0 -9 7 -12 18 -9 9 3 71 15 137
26 66 12 121 23 123 25 1 1 -7 57 -19 124 -27 143 2 133 -244 87z"/>
<path d="M941 580 c0 -8 4 -24 9 -35 l9 -20 0 20 c0 11 -4 27 -9 35 -9 13 -10
13 -9 0z"/>
<path d="M972 565 c0 -16 2 -22 5 -12 2 9 2 23 0 30 -3 6 -5 -1 -5 -18z"/>
<path d="M881 570 c0 -8 4 -24 9 -35 l9 -20 0 20 c0 11 -4 27 -9 35 -9 13 -10
13 -9 0z"/>
<path d="M910 550 c0 -21 5 -30 16 -30 11 0 14 5 10 16 -3 9 -6 22 -6 30 0 8
-4 14 -10 14 -5 0 -10 -13 -10 -30z"/>
<path d="M577 430 c-46 -8 -102 -59 -118 -107 -22 -69 14 -153 82 -188 43 -23
110 -19 149 8 76 51 98 124 61 200 -34 70 -95 100 -174 87z m78 -54 c38 -16
65 -60 65 -107 0 -48 -56 -99 -108 -99 -114 0 -153 160 -49 205 41 18 50 18
92 1z"/>
<path d="M584 296 c-10 -26 1 -51 23 -54 28 -4 50 32 32 54 -15 18 -48 18 -55
0z"/>
<path d="M908 333 c-113 -22 -128 -27 -128 -45 0 -16 5 -19 23 -15 12 3 76 15
142 27 146 25 146 25 139 45 -8 19 -22 18 -176 -12z"/>
</g>
</svg>
